<svg width="476" height="37" viewBox="0 0 476 37" fill="none" xmlns="http://www.w3.org/2000/svg">
<path d="M84.7938 32.306H78.8737L74.6562 25.25H61.3458L63.6674 21.2785H72.2959L66.0276 10.7908L53.2589 32.306H47.6484L63.8221 5.46988C64.4025 4.50594 65.1377 3.88901 66.2211 3.88901C67.3045 3.88901 68.001 4.50594 68.5814 5.46988L84.7938 32.306Z" fill="#020859"/>
<path d="M107.594 24.5174H96.2956V19.7748H107.594C111.038 19.7748 113.088 17.6155 113.088 14.4538C113.088 11.215 111.038 9.17142 107.594 9.17142H92.6972V32.306H87.8218V4.27459H107.594C114.094 4.27459 117.886 8.16892 117.886 14.2996C117.886 20.3531 114.094 24.5174 107.594 24.5174Z" fill="#020859"/>
<path d="M146.527 32.306H121.376V4.27459H146.488V9.17142H126.251V27.4092H146.527V32.306ZM145.443 20.1218H129.85V15.9961H145.443V20.1218Z" fill="#020859"/>
<path d="M185.908 32.306H179.021L167.219 20.8544L155.534 32.306H149.15L164.24 17.7312L150.233 4.27459H157.004L167.722 14.6466L178.285 4.27459H184.67L170.663 17.7312L185.908 32.306Z" fill="#020859"/>
<path d="M214.732 32.306H209.818V9.17142H199.139V4.27459H225.412V9.17142H214.732V32.306Z" fill="#020859"/>
<path d="M261.734 32.306H254.769L247.65 24.5174H237.125V20.1989H248.849C252.37 20.1989 254.227 18.1939 254.227 14.5695C254.227 10.9451 252.215 9.17142 248.849 9.17142H233.527V32.306H228.651V4.27459H248.849C255.272 4.27459 259.064 8.24603 259.064 14.4924C259.064 19.1193 256.897 22.3967 253.26 23.7848L261.734 32.306Z" fill="#020859"/>
<path d="M269.469 32.306H264.555V4.27459H269.469V32.306Z" fill="#020859"/>
<path d="M295.687 32.306H274.599V27.4092H295.687C298.318 27.4092 299.789 25.944 299.789 23.7462C299.789 21.3556 298.318 20.1218 295.687 20.1218H282.764C277.463 20.1218 274.174 16.7673 274.174 12.1404C274.174 7.62911 277.23 4.27459 282.841 4.27459H303.039V9.17142H282.841C280.597 9.17142 279.281 10.4824 279.281 12.603C279.281 14.7237 280.635 15.9961 282.802 15.9961H295.687C301.375 15.9961 304.432 18.6566 304.432 24.0932C304.432 28.7973 301.568 32.306 295.687 32.306Z" fill="#020859"/>
<path d="M339.328 32.306H331.822L316.074 19.9676C315.223 19.3121 315.068 18.6952 315.068 17.924C315.068 17.0757 315.3 16.4588 316.306 15.6877L331.203 4.27459H338.748L320.33 17.9626L339.328 32.306ZM313.559 32.306H308.645V4.27459H313.559V32.306Z" fill="#020859"/>
<path d="M367.652 32.306H342.501V4.27459H367.613V9.17142H347.377V27.4092H367.652V32.306ZM366.568 20.1218H350.975V15.9961H366.568V20.1218Z" fill="#020859"/>
<path d="M395.696 32.306H371.861V4.27459H376.775V27.4092H395.696V32.306Z" fill="#020859"/>
<path d="M404.403 32.306H399.489V4.27459H404.403V32.306Z" fill="#020859"/>
<path d="M429.229 32.306H422.38C414.525 32.306 408.721 26.1368 408.721 18.0011C408.721 9.74978 414.525 4.27459 422.38 4.27459H429.229C437.354 4.27459 443.004 9.86545 443.004 18.0011C443.004 26.1368 437.238 32.306 429.229 32.306ZM422.38 27.4092H429.229C434.414 27.4092 438.09 23.5149 438.09 18.2325C438.09 12.9501 434.414 9.17142 429.229 9.17142H422.38C417.35 9.17142 413.635 12.9115 413.635 18.2325C413.635 23.5149 417.311 27.4092 422.38 27.4092Z" fill="#020859"/>
<path d="M471.318 31.612L451.546 11.7933V32.306H446.864V6.85796C446.864 5.04575 447.831 3.92757 449.379 3.92757C450.114 3.92757 450.733 4.19748 451.469 4.93007L471.318 24.5559V4.04325H476V29.7227C476 31.5734 474.994 32.653 473.562 32.653C472.75 32.653 472.015 32.306 471.318 31.612Z" fill="#020859"/>
<path d="M11.2959 4.9636L1.34787 22.1301C-2.48219 28.7408 2.30679 37 9.9613 37H29.8574C37.5175 37 42.3009 28.7408 38.4708 22.1301L28.5228 4.95801C24.6927 -1.65267 15.1204 -1.65267 11.2959 4.95801V4.9636Z" fill="#E4EDFA"/>
<path fill-rule="evenodd" clip-rule="evenodd" d="M8.23973 24.8962C2.30118 25.388 4.25266 31.0208 9.03042 29.7914C16.0737 27.9753 19.3934 22.7504 17.47 15.9218C18.6252 23.1919 14.1334 24.4101 8.23973 24.9018V24.8962Z" fill="#020859"/>
<path fill-rule="evenodd" clip-rule="evenodd" d="M14.1334 6.33827C9.19865 13.8151 15.9447 21.5546 12.5689 23.4489C15.8045 22.5045 18.227 20.4537 17.2121 15.1954C16.6793 12.446 16.3877 10.1773 17.5653 6.91384C19.528 1.48224 25.9208 3.561 24.0759 8.88084C23.1955 11.4122 21.3898 14.0107 23.1226 14.8433C25.3881 15.933 27.0536 11.9319 26.3526 8.26615C25.1469 1.9684 17.756 0.856371 14.1334 6.33827Z" fill="#020859"/>
<path fill-rule="evenodd" clip-rule="evenodd" d="M22.8814 9.61287C25.4217 4.24274 19.5505 3.11395 18.2327 7.84704C16.2868 14.8321 19.1691 20.314 26.0666 22.0687C19.1691 19.4311 20.358 14.9439 22.8758 9.61846L22.8814 9.61287Z" fill="#020859"/>
<path fill-rule="evenodd" clip-rule="evenodd" d="M21.973 14.0722C21.1767 17.3356 21.7487 20.4537 26.8237 22.2028C29.4817 23.1192 31.5958 24.0022 33.8445 26.6509C37.5848 31.0599 32.5828 35.5359 28.8817 31.289C27.1209 29.2661 25.7694 26.405 24.1768 27.4835C22.0964 28.8917 24.7432 32.3284 28.2817 33.5578C34.3604 35.6645 39.0204 29.8417 36.0651 23.9798C32.0332 15.9833 21.9337 17.9335 21.9786 14.0777L21.973 14.0722Z" fill="#020859"/>
<path fill-rule="evenodd" clip-rule="evenodd" d="M16.427 26.4162C22.1636 21.7837 25.4778 25.0527 28.8424 29.892C32.2351 34.7704 36.1549 30.272 32.7005 26.7627C27.6031 21.5937 21.401 21.3366 16.427 26.4162Z" fill="#020859"/>
<path fill-rule="evenodd" clip-rule="evenodd" d="M15.9279 26.9974C13.8026 28.8302 11.9801 30.2161 8.55376 30.8308C2.85073 31.8534 1.46002 25.2986 7.00604 24.2313C9.64727 23.7227 12.81 23.9854 12.6698 22.0743C12.4848 19.5764 8.17244 20.1408 5.34055 22.5772C0.467463 26.7682 3.19841 33.703 9.77624 34.083C18.743 34.6027 22.0964 24.9074 25.4273 26.8744C22.988 24.5554 19.9935 23.488 15.9335 26.9974H15.9279Z" fill="#020859"/>
</svg>